<?xml version="1.0" standalone="no"?>
<!DOCTYPE svg PUBLIC "-//W3C//DTD SVG 20010904//EN"
 "http://www.w3.org/TR/2001/REC-SVG-20010904/DTD/svg10.dtd">
<svg version="1.0" xmlns="http://www.w3.org/2000/svg"
 width="790.000000pt" height="720.000000pt" viewBox="0 0 790.000000 720.000000"
 preserveAspectRatio="xMidYMid meet">

<g transform="translate(0.000000,720.000000) scale(0.100000,-0.100000)"
fill="#fff" stroke="none">
<path d="M3902 7060 c-11 -11 -24 -35 -27 -52 -3 -18 -5 -194 -3 -391 l3 -359
24 -19 c31 -26 83 -25 107 2 18 20 19 43 22 388 2 201 0 376 -3 388 -14 57
-82 81 -123 43z"/>
<path d="M1741 6169 c-33 -13 -50 -38 -51 -74 0 -25 37 -66 273 -302 236 -236
277 -273 302 -273 59 1 97 59 71 108 -18 32 -512 525 -543 541 -25 13 -21 13
-52 0z"/>
<path d="M6095 6161 c-46 -29 -532 -523 -540 -548 -15 -51 42 -104 98 -90 12
4 142 127 290 275 230 231 267 273 267 298 0 29 -31 74 -50 74 -4 0 -14 2 -22
5 -7 3 -26 -4 -43 -14z"/>
<path d="M3673 5904 c-429 -62 -812 -256 -1122 -565 -446 -447 -649 -1073
-555 -1704 60 -393 212 -720 479 -1026 98 -112 265 -381 401 -649 43 -83 68
-120 93 -137 l34 -23 947 0 947 0 33 23 c21 14 48 50 73 97 190 362 283 512
434 700 178 222 251 336 325 510 245 580 216 1227 -78 1765 -151 276 -412 553
-688 730 -213 136 -505 241 -778 280 -128 18 -419 18 -545 -1z m437 -145 c433
-39 825 -224 1132 -532 282 -283 455 -632 514 -1037 27 -191 11 -520 -36 -702
-73 -285 -194 -522 -378 -740 -143 -171 -282 -386 -423 -655 l-74 -143 -895 0
-896 0 -33 68 c-125 255 -303 538 -451 717 -234 284 -351 532 -416 890 -22
115 -29 388 -15 515 67 583 384 1071 895 1380 248 149 583 242 896 249 36 0
117 -4 180 -10z"/>
<path d="M810 3970 c-28 -28 -26 -81 3 -108 23 -22 27 -22 404 -22 370 0 381
1 407 21 33 26 35 75 6 107 -21 22 -22 22 -410 22 -377 0 -391 -1 -410 -20z"/>
<path d="M6272 3967 c-29 -31 -28 -72 3 -102 l24 -25 384 0 c372 0 384 1 405
20 29 27 29 83 2 110 -19 19 -33 20 -408 20 l-389 0 -21 -23z"/>
<path d="M1963 2038 c-293 -294 -295 -297 -252 -352 15 -20 29 -26 57 -26 35
0 52 15 304 268 179 179 269 276 274 295 10 43 -22 81 -71 85 -38 3 -41 1
-312 -270z"/>
<path d="M5571 2284 c-25 -31 -26 -46 -7 -82 8 -15 131 -143 273 -284 243
-242 261 -258 295 -258 28 0 42 7 57 26 43 55 41 58 -252 351 -257 258 -274
273 -309 273 -28 0 -42 -6 -57 -26z"/>
<path d="M3033 1295 c-11 -8 -24 -26 -27 -40 -7 -29 15 -79 39 -89 22 -8 1788
-8 1810 0 24 10 46 60 39 89 -14 58 30 55 -944 55 -774 0 -898 -2 -917 -15z"/>
<path d="M3527 688 c-26 -21 -36 -60 -27 -109 21 -109 65 -186 152 -264 96
-86 193 -120 327 -113 73 3 97 9 161 40 121 59 205 152 242 271 25 82 24 141
-4 167 -21 19 -33 20 -428 20 -309 0 -410 -3 -423 -12z"/>
</g>
</svg>
